<svg width="378" height="52" viewBox="0 0 378 52" fill="none" xmlns="http://www.w3.org/2000/svg">
<rect x="0.5" y="0.5" width="377" height="51" rx="25.5" fill="white"/>
<rect x="0.5" y="0.5" width="377" height="51" rx="25.5" stroke="#DCDEE4"/>
<rect x="4.5" y="4.5" width="43" height="43" rx="21.5" fill="white"/>
<rect x="4.5" y="4.5" width="43" height="43" rx="21.5" stroke="#DCDEE4"/>
<path d="M35 29L31.914 25.914C31.5389 25.5391 31.0303 25.3284 30.5 25.3284C29.9697 25.3284 29.4611 25.5391 29.086 25.914L20 35M19 17H33C34.1046 17 35 17.8954 35 19V33C35 34.1046 34.1046 35 33 35H19C17.8954 35 17 34.1046 17 33V19C17 17.8954 17.8954 17 19 17ZM25 23C25 24.1046 24.1046 25 23 25C21.8954 25 21 24.1046 21 23C21 21.8954 21.8954 21 23 21C24.1046 21 25 21.8954 25 23Z" stroke="#596271" stroke-width="2" stroke-linecap="round" stroke-linejoin="round"/>
<rect x="52" y="4" width="274" height="44" rx="22" fill="#F6F8FA"/>
<path d="M65.4375 32V20.7266H69.3047C70.4193 20.7266 71.3724 20.9505 72.1641 21.3984C72.9609 21.8411 73.5703 22.4818 73.9922 23.3203C74.4141 24.1589 74.625 25.1693 74.625 26.3516V26.3672C74.625 27.5495 74.4141 28.5625 73.9922 29.4062C73.5703 30.2448 72.9635 30.888 72.1719 31.3359C71.3802 31.7786 70.4245 32 69.3047 32H65.4375ZM66.8438 30.7344H69.2109C70.0495 30.7344 70.7656 30.5625 71.3594 30.2188C71.9531 29.875 72.4062 29.3776 72.7188 28.7266C73.0312 28.0755 73.1875 27.2943 73.1875 26.3828V26.3672C73.1875 25.4505 73.0286 24.6667 72.7109 24.0156C72.3984 23.3594 71.9453 22.8594 71.3516 22.5156C70.7578 22.1667 70.0443 21.9922 69.2109 21.9922H66.8438V30.7344ZM80.3281 32.1484C79.526 32.1484 78.8359 31.9714 78.2578 31.6172C77.6849 31.263 77.2422 30.763 76.9297 30.1172C76.6224 29.4661 76.4688 28.7005 76.4688 27.8203V27.8125C76.4688 26.9427 76.6224 26.1797 76.9297 25.5234C77.2422 24.8672 77.6823 24.3542 78.25 23.9844C78.8177 23.6146 79.4818 23.4297 80.2422 23.4297C81.0078 23.4297 81.6641 23.6068 82.2109 23.9609C82.763 24.3151 83.1849 24.8099 83.4766 25.4453C83.7734 26.0755 83.9219 26.8099 83.9219 27.6484V28.1797H77.1719V27.0938H83.2266L82.5547 28.0859V27.5469C82.5547 26.8854 82.4557 26.3411 82.2578 25.9141C82.0599 25.487 81.7865 25.1693 81.4375 24.9609C81.0885 24.7474 80.6875 24.6406 80.2344 24.6406C79.7812 24.6406 79.375 24.7526 79.0156 24.9766C78.6615 25.1953 78.3802 25.5208 78.1719 25.9531C77.9635 26.3854 77.8594 26.9167 77.8594 27.5469V28.0859C77.8594 28.6849 77.9609 29.1979 78.1641 29.625C78.3672 30.0469 78.6562 30.3724 79.0312 30.6016C79.4062 30.8255 79.849 30.9375 80.3594 30.9375C80.7396 30.9375 81.0703 30.8854 81.3516 30.7812C81.6328 30.6771 81.8646 30.5443 82.0469 30.3828C82.2292 30.2214 82.3568 30.0573 82.4297 29.8906L82.4609 29.8203H83.8203L83.8047 29.8828C83.7318 30.1693 83.6016 30.4479 83.4141 30.7188C83.2318 30.9844 82.9948 31.2266 82.7031 31.4453C82.4115 31.6589 82.0651 31.8307 81.6641 31.9609C81.2682 32.0859 80.8229 32.1484 80.3281 32.1484ZM88.9219 32.1484C88.2969 32.1484 87.7448 32.0547 87.2656 31.8672C86.7865 31.6745 86.401 31.4062 86.1094 31.0625C85.8229 30.7188 85.6536 30.3151 85.6016 29.8516H86.9922C87.1068 30.2005 87.3307 30.4818 87.6641 30.6953C87.9974 30.9089 88.4323 31.0156 88.9688 31.0156C89.349 31.0156 89.6823 30.9609 89.9688 30.8516C90.2604 30.737 90.4896 30.5833 90.6562 30.3906C90.8229 30.1927 90.9062 29.9661 90.9062 29.7109V29.6953C90.9062 29.4089 90.7917 29.1667 90.5625 28.9688C90.3333 28.7656 89.9583 28.6016 89.4375 28.4766L88.1328 28.1641C87.6068 28.0391 87.1745 27.8776 86.8359 27.6797C86.4974 27.4766 86.2474 27.2292 86.0859 26.9375C85.9245 26.6406 85.8438 26.2917 85.8438 25.8906V25.8828C85.8438 25.4141 85.9792 24.9948 86.25 24.625C86.526 24.2552 86.901 23.9635 87.375 23.75C87.849 23.5365 88.3828 23.4297 88.9766 23.4297C89.5651 23.4297 90.0859 23.5234 90.5391 23.7109C90.9974 23.8932 91.3646 24.1536 91.6406 24.4922C91.9219 24.8307 92.0938 25.2292 92.1562 25.6875H90.8203C90.7318 25.3542 90.5286 25.0833 90.2109 24.875C89.8932 24.6667 89.4792 24.5625 88.9688 24.5625C88.6354 24.5625 88.3385 24.6172 88.0781 24.7266C87.8177 24.8307 87.612 24.9766 87.4609 25.1641C87.3099 25.3516 87.2344 25.5703 87.2344 25.8203V25.8359C87.2344 26.0234 87.2839 26.1901 87.3828 26.3359C87.4818 26.4818 87.6354 26.6094 87.8438 26.7188C88.0521 26.8281 88.3203 26.9245 88.6484 27.0078L89.9453 27.3203C90.737 27.513 91.3255 27.7891 91.7109 28.1484C92.1016 28.5078 92.2969 28.9896 92.2969 29.5938V29.6094C92.2969 30.1094 92.1484 30.5521 91.8516 30.9375C91.5547 31.3177 91.151 31.6146 90.6406 31.8281C90.1354 32.0417 89.5625 32.1484 88.9219 32.1484ZM97.8516 32.1484C97.0651 32.1484 96.3828 31.9688 95.8047 31.6094C95.2266 31.25 94.7786 30.7422 94.4609 30.0859C94.1432 29.4297 93.9844 28.6562 93.9844 27.7656V27.75C93.9844 26.875 94.1406 26.1146 94.4531 25.4688C94.7708 24.8229 95.2188 24.3229 95.7969 23.9688C96.375 23.6094 97.0573 23.4297 97.8438 23.4297C98.526 23.4297 99.1146 23.5495 99.6094 23.7891C100.104 24.0286 100.5 24.3516 100.797 24.7578C101.094 25.1589 101.284 25.6094 101.367 26.1094L101.375 26.1562H100.023L100.016 26.1328C99.9115 25.7161 99.6745 25.362 99.3047 25.0703C98.9349 24.7786 98.4479 24.6328 97.8438 24.6328C97.3385 24.6328 96.901 24.7604 96.5312 25.0156C96.1615 25.2708 95.875 25.6328 95.6719 26.1016C95.474 26.5651 95.375 27.1146 95.375 27.75V27.7656C95.375 28.4115 95.4766 28.974 95.6797 29.4531C95.8828 29.9271 96.1693 30.2943 96.5391 30.5547C96.9089 30.8151 97.3438 30.9453 97.8438 30.9453C98.4115 30.9453 98.875 30.8229 99.2344 30.5781C99.5938 30.3333 99.8516 29.9766 100.008 29.5078L100.023 29.4609L101.367 29.4531L101.352 29.5391C101.237 30.0443 101.034 30.4948 100.742 30.8906C100.451 31.2812 100.065 31.5885 99.5859 31.8125C99.1068 32.0365 98.5286 32.1484 97.8516 32.1484ZM103.359 32V23.5781H104.719V24.8281H104.844C105.005 24.3854 105.279 24.0417 105.664 23.7969C106.049 23.5521 106.526 23.4297 107.094 23.4297C107.224 23.4297 107.352 23.4375 107.477 23.4531C107.607 23.4635 107.706 23.474 107.773 23.4844V24.8047C107.633 24.7786 107.495 24.7604 107.359 24.75C107.229 24.7344 107.089 24.7266 106.938 24.7266C106.505 24.7266 106.122 24.8125 105.789 24.9844C105.456 25.1562 105.193 25.3958 105 25.7031C104.812 26.0104 104.719 26.3698 104.719 26.7812V32H103.359ZM109.484 32V23.5781H110.844V32H109.484ZM110.172 21.9531C109.917 21.9531 109.695 21.862 109.508 21.6797C109.326 21.4922 109.234 21.2708 109.234 21.0156C109.234 20.7552 109.326 20.5339 109.508 20.3516C109.695 20.1693 109.917 20.0781 110.172 20.0781C110.432 20.0781 110.654 20.1693 110.836 20.3516C111.018 20.5339 111.109 20.7552 111.109 21.0156C111.109 21.2708 111.018 21.4922 110.836 21.6797C110.654 21.862 110.432 21.9531 110.172 21.9531ZM117.594 32.1484C117.203 32.1484 116.841 32.0885 116.508 31.9688C116.174 31.849 115.878 31.6797 115.617 31.4609C115.357 31.237 115.141 30.9688 114.969 30.6562H114.844V32H113.484V20.2344H114.844V24.9062H114.969C115.125 24.6042 115.333 24.3438 115.594 24.125C115.859 23.9062 116.161 23.737 116.5 23.6172C116.844 23.4922 117.208 23.4297 117.594 23.4297C118.307 23.4297 118.927 23.6094 119.453 23.9688C119.984 24.3281 120.396 24.8333 120.688 25.4844C120.979 26.1354 121.125 26.901 121.125 27.7812V27.7969C121.125 28.6719 120.979 29.4375 120.688 30.0938C120.396 30.7448 119.984 31.25 119.453 31.6094C118.927 31.9688 118.307 32.1484 117.594 32.1484ZM117.281 30.9453C117.797 30.9453 118.237 30.8203 118.602 30.5703C118.966 30.3151 119.245 29.9531 119.438 29.4844C119.635 29.0104 119.734 28.4479 119.734 27.7969V27.7812C119.734 27.125 119.635 26.5625 119.438 26.0938C119.245 25.625 118.966 25.2656 118.602 25.0156C118.237 24.7604 117.797 24.6328 117.281 24.6328C116.771 24.6328 116.331 24.7604 115.961 25.0156C115.591 25.2708 115.307 25.6328 115.109 26.1016C114.911 26.5703 114.812 27.1302 114.812 27.7812V27.7969C114.812 28.4427 114.911 29.0026 115.109 29.4766C115.307 29.9453 115.591 30.3073 115.961 30.5625C116.331 30.8177 116.771 30.9453 117.281 30.9453ZM126.672 32.1484C125.87 32.1484 125.18 31.9714 124.602 31.6172C124.029 31.263 123.586 30.763 123.273 30.1172C122.966 29.4661 122.812 28.7005 122.812 27.8203V27.8125C122.812 26.9427 122.966 26.1797 123.273 25.5234C123.586 24.8672 124.026 24.3542 124.594 23.9844C125.161 23.6146 125.826 23.4297 126.586 23.4297C127.352 23.4297 128.008 23.6068 128.555 23.9609C129.107 24.3151 129.529 24.8099 129.82 25.4453C130.117 26.0755 130.266 26.8099 130.266 27.6484V28.1797H123.516V27.0938H129.57L128.898 28.0859V27.5469C128.898 26.8854 128.799 26.3411 128.602 25.9141C128.404 25.487 128.13 25.1693 127.781 24.9609C127.432 24.7474 127.031 24.6406 126.578 24.6406C126.125 24.6406 125.719 24.7526 125.359 24.9766C125.005 25.1953 124.724 25.5208 124.516 25.9531C124.307 26.3854 124.203 26.9167 124.203 27.5469V28.0859C124.203 28.6849 124.305 29.1979 124.508 29.625C124.711 30.0469 125 30.3724 125.375 30.6016C125.75 30.8255 126.193 30.9375 126.703 30.9375C127.083 30.9375 127.414 30.8854 127.695 30.7812C127.977 30.6771 128.208 30.5443 128.391 30.3828C128.573 30.2214 128.701 30.0573 128.773 29.8906L128.805 29.8203H130.164L130.148 29.8828C130.076 30.1693 129.945 30.4479 129.758 30.7188C129.576 30.9844 129.339 31.2266 129.047 31.4453C128.755 31.6589 128.409 31.8307 128.008 31.9609C127.612 32.0859 127.167 32.1484 126.672 32.1484ZM137.594 34.9531C137.505 34.9531 137.406 34.9479 137.297 34.9375C137.188 34.9323 137.086 34.9219 136.992 34.9062V33.7891C137.076 33.8047 137.167 33.8151 137.266 33.8203C137.365 33.8255 137.461 33.8281 137.555 33.8281C137.94 33.8281 138.255 33.7292 138.5 33.5312C138.75 33.3333 138.951 32.9922 139.102 32.5078L139.258 32.0078L136.141 23.5781H137.594L140.188 31.3594L139.648 30.5078H140.289L139.75 31.3594L142.336 23.5781H143.766L140.477 32.5156C140.247 33.1458 140.005 33.638 139.75 33.9922C139.495 34.3464 139.195 34.5938 138.852 34.7344C138.513 34.8802 138.094 34.9531 137.594 34.9531ZM148.711 32.1484C147.914 32.1484 147.224 31.974 146.641 31.625C146.062 31.2708 145.615 30.7682 145.297 30.1172C144.984 29.4661 144.828 28.6927 144.828 27.7969V27.7812C144.828 26.8802 144.984 26.1042 145.297 25.4531C145.615 24.8021 146.062 24.3021 146.641 23.9531C147.224 23.6042 147.914 23.4297 148.711 23.4297C149.513 23.4297 150.203 23.6042 150.781 23.9531C151.359 24.3021 151.805 24.8021 152.117 25.4531C152.435 26.1042 152.594 26.8802 152.594 27.7812V27.7969C152.594 28.6927 152.435 29.4661 152.117 30.1172C151.805 30.7682 151.359 31.2708 150.781 31.625C150.203 31.974 149.513 32.1484 148.711 32.1484ZM148.711 30.9453C149.242 30.9453 149.693 30.8203 150.062 30.5703C150.432 30.3203 150.714 29.9609 150.906 29.4922C151.104 29.0234 151.203 28.4583 151.203 27.7969V27.7812C151.203 27.1146 151.104 26.5469 150.906 26.0781C150.714 25.6094 150.432 25.2526 150.062 25.0078C149.693 24.7578 149.242 24.6328 148.711 24.6328C148.18 24.6328 147.729 24.7578 147.359 25.0078C146.99 25.2526 146.706 25.6094 146.508 26.0781C146.315 26.5469 146.219 27.1146 146.219 27.7812V27.7969C146.219 28.4583 146.315 29.0234 146.508 29.4922C146.706 29.9609 146.99 30.3203 147.359 30.5703C147.729 30.8203 148.18 30.9453 148.711 30.9453ZM157.523 32.1484C156.888 32.1484 156.354 32.0286 155.922 31.7891C155.49 31.5443 155.164 31.1901 154.945 30.7266C154.732 30.2578 154.625 29.6927 154.625 29.0312V23.5781H155.984V28.7031C155.984 29.4583 156.13 30.0208 156.422 30.3906C156.719 30.7604 157.203 30.9453 157.875 30.9453C158.245 30.9453 158.57 30.8906 158.852 30.7812C159.138 30.6719 159.378 30.5156 159.57 30.3125C159.763 30.1042 159.906 29.8542 160 29.5625C160.099 29.2656 160.148 28.9323 160.148 28.5625V23.5781H161.508V32H160.148V30.7422H160.023C159.888 31.0391 159.703 31.2943 159.469 31.5078C159.234 31.7161 158.953 31.875 158.625 31.9844C158.302 32.0938 157.935 32.1484 157.523 32.1484ZM164.047 32V23.5781H165.406V24.8281H165.531C165.693 24.3854 165.966 24.0417 166.352 23.7969C166.737 23.5521 167.214 23.4297 167.781 23.4297C167.911 23.4297 168.039 23.4375 168.164 23.4531C168.294 23.4635 168.393 23.474 168.461 23.4844V24.8047C168.32 24.7786 168.182 24.7604 168.047 24.75C167.917 24.7344 167.776 24.7266 167.625 24.7266C167.193 24.7266 166.81 24.8125 166.477 24.9844C166.143 25.1562 165.88 25.3958 165.688 25.7031C165.5 26.0104 165.406 26.3698 165.406 26.7812V32H164.047ZM174.641 32V23.5781H176V24.8281H176.125C176.286 24.3854 176.56 24.0417 176.945 23.7969C177.331 23.5521 177.807 23.4297 178.375 23.4297C178.505 23.4297 178.633 23.4375 178.758 23.4531C178.888 23.4635 178.987 23.474 179.055 23.4844V24.8047C178.914 24.7786 178.776 24.7604 178.641 24.75C178.51 24.7344 178.37 24.7266 178.219 24.7266C177.786 24.7266 177.404 24.8125 177.07 24.9844C176.737 25.1562 176.474 25.3958 176.281 25.7031C176.094 26.0104 176 26.3698 176 26.7812V32H174.641ZM183.938 32.1484C183.135 32.1484 182.445 31.9714 181.867 31.6172C181.294 31.263 180.852 30.763 180.539 30.1172C180.232 29.4661 180.078 28.7005 180.078 27.8203V27.8125C180.078 26.9427 180.232 26.1797 180.539 25.5234C180.852 24.8672 181.292 24.3542 181.859 23.9844C182.427 23.6146 183.091 23.4297 183.852 23.4297C184.617 23.4297 185.273 23.6068 185.82 23.9609C186.372 24.3151 186.794 24.8099 187.086 25.4453C187.383 26.0755 187.531 26.8099 187.531 27.6484V28.1797H180.781V27.0938H186.836L186.164 28.0859V27.5469C186.164 26.8854 186.065 26.3411 185.867 25.9141C185.669 25.487 185.396 25.1693 185.047 24.9609C184.698 24.7474 184.297 24.6406 183.844 24.6406C183.391 24.6406 182.984 24.7526 182.625 24.9766C182.271 25.1953 181.99 25.5208 181.781 25.9531C181.573 26.3854 181.469 26.9167 181.469 27.5469V28.0859C181.469 28.6849 181.57 29.1979 181.773 29.625C181.977 30.0469 182.266 30.3724 182.641 30.6016C183.016 30.8255 183.458 30.9375 183.969 30.9375C184.349 30.9375 184.68 30.8854 184.961 30.7812C185.242 30.6771 185.474 30.5443 185.656 30.3828C185.839 30.2214 185.966 30.0573 186.039 29.8906L186.07 29.8203H187.43L187.414 29.8828C187.341 30.1693 187.211 30.4479 187.023 30.7188C186.841 30.9844 186.604 31.2266 186.312 31.4453C186.021 31.6589 185.674 31.8307 185.273 31.9609C184.878 32.0859 184.432 32.1484 183.938 32.1484ZM189.641 34.8125V23.5781H191V24.9219H191.125C191.297 24.6094 191.513 24.3438 191.773 24.125C192.034 23.901 192.331 23.7292 192.664 23.6094C192.997 23.4896 193.359 23.4297 193.75 23.4297C194.464 23.4297 195.083 23.612 195.609 23.9766C196.141 24.3359 196.552 24.8411 196.844 25.4922C197.135 26.1432 197.281 26.9062 197.281 27.7812V27.7969C197.281 28.6771 197.135 29.4427 196.844 30.0938C196.552 30.7448 196.141 31.25 195.609 31.6094C195.083 31.9688 194.464 32.1484 193.75 32.1484C193.365 32.1484 193 32.0885 192.656 31.9688C192.318 31.8438 192.016 31.6719 191.75 31.4531C191.49 31.2344 191.281 30.974 191.125 30.6719H191V34.8125H189.641ZM193.438 30.9453C193.953 30.9453 194.393 30.8203 194.758 30.5703C195.122 30.3151 195.401 29.9531 195.594 29.4844C195.792 29.0104 195.891 28.4479 195.891 27.7969V27.7812C195.891 27.125 195.792 26.5625 195.594 26.0938C195.401 25.625 195.122 25.2656 194.758 25.0156C194.393 24.7604 193.953 24.6328 193.438 24.6328C192.927 24.6328 192.487 24.7604 192.117 25.0156C191.747 25.2708 191.464 25.6328 191.266 26.1016C191.068 26.5703 190.969 27.1302 190.969 27.7812V27.7969C190.969 28.4427 191.068 29.0026 191.266 29.4766C191.464 29.9453 191.747 30.3073 192.117 30.5625C192.487 30.8177 192.927 30.9453 193.438 30.9453ZM201.719 32.1484C201.188 32.1484 200.708 32.0469 200.281 31.8438C199.859 31.6406 199.523 31.3516 199.273 30.9766C199.029 30.6016 198.906 30.1589 198.906 29.6484V29.6328C198.906 29.1328 199.026 28.7057 199.266 28.3516C199.505 27.9922 199.854 27.7109 200.312 27.5078C200.771 27.3047 201.326 27.1849 201.977 27.1484L205.07 26.9609V28.0469L202.141 28.2344C201.5 28.2708 201.031 28.4036 200.734 28.6328C200.443 28.862 200.297 29.1849 200.297 29.6016V29.6172C200.297 30.0443 200.458 30.3776 200.781 30.6172C201.104 30.8516 201.51 30.9688 202 30.9688C202.464 30.9688 202.875 30.8776 203.234 30.6953C203.594 30.5078 203.875 30.2552 204.078 29.9375C204.286 29.6198 204.391 29.2604 204.391 28.8594V26.2344C204.391 25.7135 204.232 25.3177 203.914 25.0469C203.602 24.7708 203.13 24.6328 202.5 24.6328C201.995 24.6328 201.581 24.724 201.258 24.9062C200.935 25.0833 200.719 25.3359 200.609 25.6641L200.602 25.6875H199.242L199.25 25.6406C199.323 25.1979 199.505 24.8125 199.797 24.4844C200.094 24.151 200.477 23.8932 200.945 23.7109C201.414 23.5234 201.948 23.4297 202.547 23.4297C203.234 23.4297 203.815 23.5417 204.289 23.7656C204.768 23.9896 205.13 24.3125 205.375 24.7344C205.625 25.151 205.75 25.651 205.75 26.2344V32H204.391V30.7578H204.266C204.089 31.0547 203.872 31.3073 203.617 31.5156C203.367 31.724 203.083 31.8828 202.766 31.9922C202.448 32.0964 202.099 32.1484 201.719 32.1484ZM208.266 32V23.5781H209.625V32H208.266ZM208.953 21.9531C208.698 21.9531 208.477 21.862 208.289 21.6797C208.107 21.4922 208.016 21.2708 208.016 21.0156C208.016 20.7552 208.107 20.5339 208.289 20.3516C208.477 20.1693 208.698 20.0781 208.953 20.0781C209.214 20.0781 209.435 20.1693 209.617 20.3516C209.799 20.5339 209.891 20.7552 209.891 21.0156C209.891 21.2708 209.799 21.4922 209.617 21.6797C209.435 21.862 209.214 21.9531 208.953 21.9531ZM212.188 32V23.5781H213.547V24.8281H213.672C213.833 24.3854 214.107 24.0417 214.492 23.7969C214.878 23.5521 215.354 23.4297 215.922 23.4297C216.052 23.4297 216.18 23.4375 216.305 23.4531C216.435 23.4635 216.534 23.474 216.602 23.4844V24.8047C216.461 24.7786 216.323 24.7604 216.188 24.75C216.057 24.7344 215.917 24.7266 215.766 24.7266C215.333 24.7266 214.951 24.8125 214.617 24.9844C214.284 25.1562 214.021 25.3958 213.828 25.7031C213.641 26.0104 213.547 26.3698 213.547 26.7812V32H212.188ZM222.812 32V23.5781H224.172V32H222.812ZM223.5 21.9531C223.245 21.9531 223.023 21.862 222.836 21.6797C222.654 21.4922 222.562 21.2708 222.562 21.0156C222.562 20.7552 222.654 20.5339 222.836 20.3516C223.023 20.1693 223.245 20.0781 223.5 20.0781C223.76 20.0781 223.982 20.1693 224.164 20.3516C224.346 20.5339 224.438 20.7552 224.438 21.0156C224.438 21.2708 224.346 21.4922 224.164 21.6797C223.982 21.862 223.76 21.9531 223.5 21.9531ZM229.625 32.1484C229 32.1484 228.448 32.0547 227.969 31.8672C227.49 31.6745 227.104 31.4062 226.812 31.0625C226.526 30.7188 226.357 30.3151 226.305 29.8516H227.695C227.81 30.2005 228.034 30.4818 228.367 30.6953C228.701 30.9089 229.135 31.0156 229.672 31.0156C230.052 31.0156 230.385 30.9609 230.672 30.8516C230.964 30.737 231.193 30.5833 231.359 30.3906C231.526 30.1927 231.609 29.9661 231.609 29.7109V29.6953C231.609 29.4089 231.495 29.1667 231.266 28.9688C231.036 28.7656 230.661 28.6016 230.141 28.4766L228.836 28.1641C228.31 28.0391 227.878 27.8776 227.539 27.6797C227.201 27.4766 226.951 27.2292 226.789 26.9375C226.628 26.6406 226.547 26.2917 226.547 25.8906V25.8828C226.547 25.4141 226.682 24.9948 226.953 24.625C227.229 24.2552 227.604 23.9635 228.078 23.75C228.552 23.5365 229.086 23.4297 229.68 23.4297C230.268 23.4297 230.789 23.5234 231.242 23.7109C231.701 23.8932 232.068 24.1536 232.344 24.4922C232.625 24.8307 232.797 25.2292 232.859 25.6875H231.523C231.435 25.3542 231.232 25.0833 230.914 24.875C230.596 24.6667 230.182 24.5625 229.672 24.5625C229.339 24.5625 229.042 24.6172 228.781 24.7266C228.521 24.8307 228.315 24.9766 228.164 25.1641C228.013 25.3516 227.938 25.5703 227.938 25.8203V25.8359C227.938 26.0234 227.987 26.1901 228.086 26.3359C228.185 26.4818 228.339 26.6094 228.547 26.7188C228.755 26.8281 229.023 26.9245 229.352 27.0078L230.648 27.3203C231.44 27.513 232.029 27.7891 232.414 28.1484C232.805 28.5078 233 28.9896 233 29.5938V29.6094C233 30.1094 232.852 30.5521 232.555 30.9375C232.258 31.3177 231.854 31.6146 231.344 31.8281C230.839 32.0417 230.266 32.1484 229.625 32.1484ZM237.844 32.1484C237.219 32.1484 236.667 32.0547 236.188 31.8672C235.708 31.6745 235.323 31.4062 235.031 31.0625C234.745 30.7188 234.576 30.3151 234.523 29.8516H235.914C236.029 30.2005 236.253 30.4818 236.586 30.6953C236.919 30.9089 237.354 31.0156 237.891 31.0156C238.271 31.0156 238.604 30.9609 238.891 30.8516C239.182 30.737 239.411 30.5833 239.578 30.3906C239.745 30.1927 239.828 29.9661 239.828 29.7109V29.6953C239.828 29.4089 239.714 29.1667 239.484 28.9688C239.255 28.7656 238.88 28.6016 238.359 28.4766L237.055 28.1641C236.529 28.0391 236.096 27.8776 235.758 27.6797C235.419 27.4766 235.169 27.2292 235.008 26.9375C234.846 26.6406 234.766 26.2917 234.766 25.8906V25.8828C234.766 25.4141 234.901 24.9948 235.172 24.625C235.448 24.2552 235.823 23.9635 236.297 23.75C236.771 23.5365 237.305 23.4297 237.898 23.4297C238.487 23.4297 239.008 23.5234 239.461 23.7109C239.919 23.8932 240.286 24.1536 240.562 24.4922C240.844 24.8307 241.016 25.2292 241.078 25.6875H239.742C239.654 25.3542 239.451 25.0833 239.133 24.875C238.815 24.6667 238.401 24.5625 237.891 24.5625C237.557 24.5625 237.26 24.6172 237 24.7266C236.74 24.8307 236.534 24.9766 236.383 25.1641C236.232 25.3516 236.156 25.5703 236.156 25.8203V25.8359C236.156 26.0234 236.206 26.1901 236.305 26.3359C236.404 26.4818 236.557 26.6094 236.766 26.7188C236.974 26.8281 237.242 26.9245 237.57 27.0078L238.867 27.3203C239.659 27.513 240.247 27.7891 240.633 28.1484C241.023 28.5078 241.219 28.9896 241.219 29.5938V29.6094C241.219 30.1094 241.07 30.5521 240.773 30.9375C240.477 31.3177 240.073 31.6146 239.562 31.8281C239.057 32.0417 238.484 32.1484 237.844 32.1484ZM246.148 32.1484C245.513 32.1484 244.979 32.0286 244.547 31.7891C244.115 31.5443 243.789 31.1901 243.57 30.7266C243.357 30.2578 243.25 29.6927 243.25 29.0312V23.5781H244.609V28.7031C244.609 29.4583 244.755 30.0208 245.047 30.3906C245.344 30.7604 245.828 30.9453 246.5 30.9453C246.87 30.9453 247.195 30.8906 247.477 30.7812C247.763 30.6719 248.003 30.5156 248.195 30.3125C248.388 30.1042 248.531 29.8542 248.625 29.5625C248.724 29.2656 248.773 28.9323 248.773 28.5625V23.5781H250.133V32H248.773V30.7422H248.648C248.513 31.0391 248.328 31.2943 248.094 31.5078C247.859 31.7161 247.578 31.875 247.25 31.9844C246.927 32.0938 246.56 32.1484 246.148 32.1484ZM256.109 32.1484C255.307 32.1484 254.617 31.9714 254.039 31.6172C253.466 31.263 253.023 30.763 252.711 30.1172C252.404 29.4661 252.25 28.7005 252.25 27.8203V27.8125C252.25 26.9427 252.404 26.1797 252.711 25.5234C253.023 24.8672 253.464 24.3542 254.031 23.9844C254.599 23.6146 255.263 23.4297 256.023 23.4297C256.789 23.4297 257.445 23.6068 257.992 23.9609C258.544 24.3151 258.966 24.8099 259.258 25.4453C259.555 26.0755 259.703 26.8099 259.703 27.6484V28.1797H252.953V27.0938H259.008L258.336 28.0859V27.5469C258.336 26.8854 258.237 26.3411 258.039 25.9141C257.841 25.487 257.568 25.1693 257.219 24.9609C256.87 24.7474 256.469 24.6406 256.016 24.6406C255.562 24.6406 255.156 24.7526 254.797 24.9766C254.443 25.1953 254.161 25.5208 253.953 25.9531C253.745 26.3854 253.641 26.9167 253.641 27.5469V28.0859C253.641 28.6849 253.742 29.1979 253.945 29.625C254.148 30.0469 254.438 30.3724 254.812 30.6016C255.188 30.8255 255.63 30.9375 256.141 30.9375C256.521 30.9375 256.852 30.8854 257.133 30.7812C257.414 30.6771 257.646 30.5443 257.828 30.3828C258.01 30.2214 258.138 30.0573 258.211 29.8906L258.242 29.8203H259.602L259.586 29.8828C259.513 30.1693 259.383 30.4479 259.195 30.7188C259.013 30.9844 258.776 31.2266 258.484 31.4453C258.193 31.6589 257.846 31.8307 257.445 31.9609C257.049 32.0859 256.604 32.1484 256.109 32.1484Z" fill="#717B8C"/>
<rect x="330.5" y="4.5" width="43" height="43" rx="21.5" fill="#2C3E50"/>
<rect x="330.5" y="4.5" width="43" height="43" rx="21.5" stroke="#DCDEE4"/>
<path d="M350.913 27.0853C350.722 26.8945 350.494 26.7444 350.244 26.6441L342.314 23.4641C342.219 23.4261 342.138 23.36 342.082 23.2748C342.026 23.1895 341.998 23.0892 342 22.9872C342.003 22.8852 342.037 22.7865 342.097 22.7042C342.157 22.622 342.241 22.5602 342.338 22.5271L361.338 16.0271C361.426 15.9951 361.522 15.9889 361.614 16.0094C361.706 16.03 361.79 16.0762 361.857 16.1428C361.924 16.2094 361.97 16.2937 361.99 16.3856C362.011 16.4776 362.005 16.5734 361.973 16.6621L355.473 35.6621C355.44 35.7586 355.378 35.8426 355.296 35.903C355.213 35.9633 355.115 35.9971 355.013 35.9997C354.911 36.0023 354.81 35.9737 354.725 35.9176C354.64 35.8615 354.574 35.7807 354.536 35.6861L351.356 27.7541C351.255 27.5036 351.104 27.2761 350.913 27.0853ZM350.913 27.0853L361.854 16.1471" stroke="white" stroke-width="2" stroke-linecap="round"/>
</svg>
