<svg width="512" height="512" viewBox="0 0 512 512" fill="none" xmlns="http://www.w3.org/2000/svg">
<path fill-rule="evenodd" clip-rule="evenodd" d="M2.06363 165.16C2.06363 92.1874 61.2198 33.0312 134.193 33.0312H485.16C495.503 33.0312 504.757 39.4563 508.372 49.1467C511.987 58.837 509.202 69.7533 501.386 76.527L290.891 258.956C262.364 283.68 225.88 297.289 188.13 297.289H134.193C61.2198 297.289 2.06363 238.133 2.06363 165.16ZM134.193 82.5796C88.5846 82.5796 51.612 119.552 51.612 165.16C51.612 210.768 88.5846 247.741 134.193 247.741H188.13C213.959 247.741 238.921 238.429 258.44 221.513L418.748 82.5796H134.193Z" fill="#2C3E50"/>
<path fill-rule="evenodd" clip-rule="evenodd" d="M509.935 346.838C509.935 419.811 450.778 478.967 377.806 478.967H26.8378C16.4953 478.967 7.24091 472.542 3.62607 462.851C0.0112275 453.161 2.79668 442.245 10.6125 435.471L221.108 253.042C249.635 228.318 286.119 214.709 323.868 214.709L377.806 214.709C450.778 214.709 509.935 273.865 509.935 346.838ZM377.806 429.418C423.414 429.418 460.386 392.446 460.386 346.838C460.386 301.23 423.414 264.257 377.806 264.257H323.868C298.04 264.257 273.077 273.569 253.558 290.485L93.2507 429.418L377.806 429.418Z" fill="#2C3E50"/>
</svg>
