<svg width="21" height="20" viewBox="0 0 21 20" fill="none" xmlns="http://www.w3.org/2000/svg">
<path d="M9.59456 10.9043C9.4353 10.7453 9.24549 10.6203 9.03659 10.5366L2.42825 7.88663C2.34935 7.85497 2.28202 7.79993 2.2353 7.7289C2.18858 7.65787 2.16471 7.57425 2.16688 7.48926C2.16906 7.40428 2.19718 7.32199 2.24748 7.25344C2.29777 7.1849 2.36783 7.13338 2.44825 7.1058L18.2816 1.68913C18.3554 1.66246 18.4353 1.65737 18.512 1.67446C18.5886 1.69154 18.6588 1.7301 18.7143 1.78561C18.7698 1.84113 18.8083 1.9113 18.8254 1.98793C18.8425 2.06455 18.8374 2.14446 18.8108 2.2183L13.3941 18.0516C13.3665 18.1321 13.315 18.2021 13.2464 18.2524C13.1779 18.3027 13.0956 18.3308 13.0106 18.333C12.9256 18.3352 12.842 18.3113 12.771 18.2646C12.7 18.2179 12.6449 18.1505 12.6133 18.0716L9.96325 11.4616C9.87924 11.2529 9.75382 11.0633 9.59456 10.9043ZM9.59456 10.9043L18.7116 1.78913" stroke="white" stroke-width="2" stroke-linecap="round"/>
</svg>
