<svg width="170" height="30" viewBox="0 0 170 30" fill="none" xmlns="http://www.w3.org/2000/svg">
<path fill-rule="evenodd" clip-rule="evenodd" d="M0.0967327 10.7419C0.0967327 7.32129 2.86968 4.54834 6.29028 4.54834H22.7419C23.2267 4.54834 23.6605 4.84952 23.8299 5.30375C23.9994 5.75799 23.8688 6.26969 23.5025 6.5872L13.6355 15.1386C12.2983 16.2975 10.5881 16.9354 8.81859 16.9354H6.29028C2.86968 16.9354 0.0967327 14.1625 0.0967327 10.7419ZM6.29028 6.87092C4.1524 6.87092 2.41931 8.60401 2.41931 10.7419C2.41931 12.8798 4.1524 14.6129 6.29028 14.6129H8.81859C10.0293 14.6129 11.1994 14.1764 12.1144 13.3834L19.6288 6.87092H6.29028Z" fill="#2C3E50"/>
<path fill-rule="evenodd" clip-rule="evenodd" d="M23.9032 19.258C23.9032 22.6786 21.1302 25.4516 17.7096 25.4516H1.25802C0.773215 25.4516 0.339418 25.1504 0.169972 24.6962C0.000526294 24.2419 0.131094 23.7302 0.497461 23.4127L10.3644 14.8613C11.7016 13.7024 13.4118 13.0645 15.1813 13.0645H17.7096C21.1302 13.0645 23.9032 15.8374 23.9032 19.258ZM17.7096 23.129C19.8475 23.129 21.5806 21.3959 21.5806 19.258C21.5806 17.1201 19.8475 15.387 17.7096 15.387H15.1813C13.9706 15.387 12.8005 15.8235 11.8855 16.6165L4.37113 23.129L17.7096 23.129Z" fill="#2C3E50"/>
<path d="M44.9516 12.2344C44.9516 11.5391 45.0844 10.8867 45.35 10.2773C45.6156 9.66797 45.975 9.13672 46.4281 8.68359C46.8891 8.22266 47.4242 7.85938 48.0336 7.59375C48.643 7.32812 49.2953 7.19531 49.9906 7.19531H57.7016V10.5586H49.9906C49.7562 10.5586 49.5375 10.6016 49.3344 10.6875C49.1312 10.7734 48.9516 10.8945 48.7953 11.0508C48.6469 11.1992 48.5297 11.375 48.4437 11.5781C48.3578 11.7812 48.3148 12 48.3148 12.2344C48.3148 12.4688 48.3578 12.6914 48.4437 12.9023C48.5297 13.1055 48.6469 13.2852 48.7953 13.4414C48.9516 13.5898 49.1312 13.707 49.3344 13.793C49.5375 13.8789 49.7562 13.9219 49.9906 13.9219H53.3539C54.0492 13.9219 54.7016 14.0547 55.3109 14.3203C55.9281 14.5781 56.4633 14.9375 56.9164 15.3984C57.3773 15.8516 57.7367 16.3867 57.9945 17.0039C58.2602 17.6133 58.393 18.2656 58.393 18.9609C58.393 19.6562 58.2602 20.3086 57.9945 20.918C57.7367 21.5273 57.3773 22.0625 56.9164 22.5234C56.4633 22.9766 55.9281 23.3359 55.3109 23.6016C54.7016 23.8672 54.0492 24 53.3539 24H45.8891V20.6367H53.3539C53.5883 20.6367 53.807 20.5938 54.0102 20.5078C54.2133 20.4219 54.3891 20.3047 54.5375 20.1562C54.6937 20 54.8148 19.8203 54.9008 19.6172C54.9867 19.4141 55.0297 19.1953 55.0297 18.9609C55.0297 18.7266 54.9867 18.5078 54.9008 18.3047C54.8148 18.1016 54.6937 17.9258 54.5375 17.7773C54.3891 17.6211 54.2133 17.5 54.0102 17.4141C53.807 17.3281 53.5883 17.2852 53.3539 17.2852H49.9906C49.2953 17.2852 48.643 17.1523 48.0336 16.8867C47.4242 16.6211 46.8891 16.2617 46.4281 15.8086C45.975 15.3477 45.6156 14.8125 45.35 14.2031C45.0844 13.5859 44.9516 12.9297 44.9516 12.2344ZM76.2617 17.2852C76.2617 18.2148 76.0859 19.0898 75.7344 19.9102C75.3828 20.7227 74.9023 21.4336 74.293 22.043C73.6836 22.6445 72.9687 23.1211 72.1484 23.4727C71.3359 23.8242 70.4648 24 69.5352 24C68.6055 24 67.7305 23.8242 66.9102 23.4727C66.0977 23.1211 65.3867 22.6445 64.7773 22.043C64.1758 21.4336 63.6992 20.7227 63.3477 19.9102C62.9961 19.0898 62.8203 18.2148 62.8203 17.2852V7.19531H66.1719V17.2852C66.1719 17.7461 66.2578 18.1797 66.4297 18.5859C66.6094 18.9922 66.8516 19.3477 67.1562 19.6523C67.4609 19.957 67.8164 20.1992 68.2227 20.3789C68.6367 20.5508 69.0742 20.6367 69.5352 20.6367C69.9961 20.6367 70.4297 20.5508 70.8359 20.3789C71.25 20.1992 71.6094 19.957 71.9141 19.6523C72.2187 19.3477 72.457 18.9922 72.6289 18.5859C72.8086 18.1797 72.8984 17.7461 72.8984 17.2852V7.19531H76.2617V17.2852ZM88.6344 24H85.2828V10.5586H80.232V7.19531H93.6734V10.5586H88.6344V24ZM101.218 10.5586V17.2852H104.581C105.042 17.2852 105.476 17.1992 105.882 17.0273C106.288 16.8477 106.644 16.6055 106.948 16.3008C107.253 15.9961 107.491 15.6406 107.663 15.2344C107.843 14.8203 107.933 14.3828 107.933 13.9219C107.933 13.4609 107.843 13.0273 107.663 12.6211C107.491 12.207 107.253 11.8477 106.948 11.543C106.644 11.2383 106.288 11 105.882 10.8281C105.476 10.6484 105.042 10.5586 104.581 10.5586H101.218ZM101.218 24H97.8547V7.19531H104.581C105.198 7.19531 105.792 7.27734 106.362 7.44141C106.933 7.59766 107.464 7.82422 107.956 8.12109C108.456 8.41016 108.909 8.76172 109.316 9.17578C109.73 9.58203 110.081 10.0352 110.37 10.5352C110.667 11.0352 110.894 11.5703 111.05 12.1406C111.214 12.7109 111.296 13.3047 111.296 13.9219C111.296 14.5 111.222 15.0625 111.073 15.6094C110.933 16.1562 110.726 16.6758 110.452 17.168C110.187 17.6602 109.859 18.1133 109.468 18.5273C109.077 18.9414 108.64 19.3008 108.155 19.6055L110.019 24H106.445L104.98 20.6133L101.218 20.6367V24ZM132.376 15.668C132.376 16.4648 132.27 17.2344 132.059 17.9766C131.856 18.7109 131.567 19.4023 131.192 20.0508C130.817 20.6914 130.364 21.2773 129.833 21.8086C129.302 22.3398 128.716 22.7969 128.075 23.1797C127.434 23.5547 126.743 23.8438 126.001 24.0469C125.259 24.2578 124.489 24.3633 123.692 24.3633C122.895 24.3633 122.126 24.2578 121.384 24.0469C120.649 23.8438 119.958 23.5547 119.309 23.1797C118.669 22.7969 118.083 22.3398 117.552 21.8086C117.02 21.2773 116.563 20.6914 116.18 20.0508C115.805 19.4023 115.512 18.7109 115.302 17.9766C115.098 17.2344 114.997 16.4648 114.997 15.668C114.997 14.8711 115.098 14.1016 115.302 13.3594C115.512 12.6172 115.805 11.9258 116.18 11.2852C116.563 10.6445 117.02 10.0586 117.552 9.52734C118.083 8.99609 118.669 8.54297 119.309 8.16797C119.958 7.79297 120.649 7.50391 121.384 7.30078C122.126 7.08984 122.895 6.98438 123.692 6.98438C124.489 6.98438 125.259 7.08984 126.001 7.30078C126.743 7.50391 127.434 7.79297 128.075 8.16797C128.716 8.54297 129.302 8.99609 129.833 9.52734C130.364 10.0586 130.817 10.6445 131.192 11.2852C131.567 11.9258 131.856 12.6172 132.059 13.3594C132.27 14.1016 132.376 14.8711 132.376 15.668ZM129.036 15.668C129.036 14.9336 128.895 14.2422 128.614 13.5938C128.333 12.9375 127.95 12.3711 127.466 11.8945C126.989 11.4102 126.423 11.0273 125.766 10.7461C125.118 10.4648 124.427 10.3242 123.692 10.3242C122.95 10.3242 122.255 10.4648 121.606 10.7461C120.958 11.0273 120.391 11.4102 119.907 11.8945C119.423 12.3711 119.04 12.9375 118.759 13.5938C118.477 14.2422 118.337 14.9336 118.337 15.668C118.337 16.4023 118.477 17.0938 118.759 17.7422C119.04 18.3828 119.423 18.9453 119.907 19.4297C120.391 19.9141 120.958 20.2969 121.606 20.5781C122.255 20.8594 122.95 21 123.692 21C124.427 21 125.118 20.8594 125.766 20.5781C126.423 20.2969 126.989 19.9141 127.466 19.4297C127.95 18.9453 128.333 18.3828 128.614 17.7422C128.895 17.0938 129.036 16.4023 129.036 15.668ZM156.008 17.2852V13.9219C156.008 13.4609 155.918 13.0273 155.738 12.6211C155.566 12.207 155.328 11.8477 155.023 11.543C154.719 11.2383 154.359 11 153.945 10.8281C153.539 10.6484 153.105 10.5586 152.645 10.5586C152.184 10.5586 151.746 10.6484 151.332 10.8281C150.926 11 150.57 11.2383 150.266 11.543C149.961 11.8477 149.719 12.207 149.539 12.6211C149.367 13.0273 149.281 13.4609 149.281 13.9219V17.2852H156.008ZM159.371 24H156.008V20.6367H149.281V24H145.93V13.9219C145.93 12.9922 146.105 12.1211 146.457 11.3086C146.809 10.4883 147.285 9.77344 147.887 9.16406C148.496 8.55469 149.207 8.07422 150.02 7.72266C150.84 7.37109 151.715 7.19531 152.645 7.19531C153.574 7.19531 154.445 7.37109 155.258 7.72266C156.078 8.07422 156.793 8.55469 157.402 9.16406C158.012 9.77344 158.492 10.4883 158.844 11.3086C159.195 12.1211 159.371 12.9922 159.371 13.9219V24ZM168.052 24H164.689V7.19531H168.052V24Z" fill="#2C3E50"/>
</svg>
